<svg xmlns="http://www.w3.org/2000/svg" width="800" height="800" fill="none" viewBox="0 0 24 24"><path stroke="#000" stroke-linecap="round" stroke-width="2" d="M12 12.8c1-1 2-1.395 2-2.5a2 2 0 0 0-3.938-.5m1.938 6h.01m7.459-1.269 1.4-1.4c.396-.396.594-.594.668-.822a1 1 0 0 0 0-.618c-.074-.228-.272-.426-.668-.822l-1.4-1.4c-.173-.173-.26-.26-.322-.36a1 1 0 0 1-.12-.29C19 8.704 19 8.582 19 8.337V6.6c0-.56 0-.84-.109-1.054a1 1 0 0 0-.437-.437C18.24 5 17.96 5 17.4 5h-1.737c-.245 0-.367 0-.482-.028a1 1 0 0 1-.29-.12c-.1-.061-.187-.148-.36-.32l-1.4-1.4c-.396-.397-.594-.595-.822-.669a1 1 0 0 0-.618 0c-.228.074-.426.272-.822.668l-1.4 1.4c-.173.173-.26.26-.36.322a1 1 0 0 1-.29.12C8.704 5 8.582 5 8.337 5H6.6c-.56 0-.84 0-1.054.11a1 1 0 0 0-.437.436C5 5.76 5 6.04 5 6.6v1.737c0 .245 0 .367-.028.482a1 1 0 0 1-.12.29c-.061.1-.148.187-.32.36l-1.4 1.4c-.397.396-.595.594-.669.822a1 1 0 0 0 0 .618c.074.228.272.426.668.823l1.4 1.4c.173.172.26.259.322.36a1 1 0 0 1 .12.289c.027.115.027.237.027.482V17.4c0 .56 0 .84.109 1.054a1 1 0 0 0 .437.437c.214.11.494.11 1.054.11h1.737c.245 0 .367 0 .482.027.102.024.2.065.29.12.1.061.187.148.36.32l1.4 1.4c.396.397.594.595.822.669a1 1 0 0 0 .618 0c.228-.074.426-.272.822-.668l1.4-1.4c.173-.173.26-.26.36-.322a.999.999 0 0 1 .29-.12c.115-.027.237-.027.482-.027H17.4c.56 0 .84 0 1.054-.109a1 1 0 0 0 .437-.437C19 18.24 19 17.96 19 17.4v-1.737c0-.245 0-.367.028-.482a1 1 0 0 1 .12-.29c.061-.1.148-.187.32-.36Z"/></svg>