<svg xmlns="http://www.w3.org/2000/svg" width="800" height="800" fill="none" viewBox="0 0 24 24"><path stroke="#000" stroke-linecap="round" stroke-linejoin="round" stroke-width="2" d="m2.5 5.5.616.616a3.018 3.018 0 0 0 4.268 0l.232-.232a3.018 3.018 0 0 1 4.268 0l.232.232a3.018 3.018 0 0 0 4.268 0l.232-.232a3.018 3.018 0 0 1 4.268 0l.616.616m-19 5 .616.616a3.018 3.018 0 0 0 4.268 0l.232-.232a3.018 3.018 0 0 1 4.268 0l.232.232a3.018 3.018 0 0 0 4.268 0l.232-.232a3.018 3.018 0 0 1 4.268 0l.616.616m-19 5 .616.616a3.018 3.018 0 0 0 4.268 0l.232-.232a3.018 3.018 0 0 1 4.268 0l.232.232a3.018 3.018 0 0 0 4.268 0l.232-.232a3.018 3.018 0 0 1 4.268 0l.616.616"/></svg>