<svg xmlns="http://www.w3.org/2000/svg" viewBox="0 0 1400 180"><defs><style>.cls-3{letter-spacing:-.04em}</style></defs><path id="Calque_1" d="M8.76 36.78a.1.1 0 0 1 .07-.09c12.28 0 24.05 2.08 34.65 8.75C49.08 49 53.53 53.5 55 60.28a22.35 22.35 0 0 1-.81 11.49.08.08 0 0 1-.11 0c-5.88-10.67-15.67-16-25.53-21.22a.08.08 0 0 0-.12 0 .1.1 0 0 0 0 .12c4.18 2.91 8.52 5.62 12.35 9A87.28 87.28 0 0 1 52.6 72.09c3.4 4.41 5.94 9.48 9.14 14.76a.06.06 0 0 0 .09 0 .07.07 0 0 0 .05 0c8.84-29.76 28.75-50.44 53.8-66.85.29-.18-.07-.76-.38-.59-3.35 1.92-6.77 3.73-10 5.79s-6.77 4.36-9.94 6.82a93.75 93.75 0 0 0-8.89 7.78 101.27 101.27 0 0 0-8 9.11c-2.44 3.1-4.61 6.42-7 9.88a.08.08 0 0 1-.11 0C67.89 47 70 36.56 78 27.49a48.88 48.88 0 0 1 14.66-11.12c13-6.73 26.9-9.62 41.39-9.93h1.92a.08.08 0 0 1 .08.08c-.64 3.75-1.05 7.37-1.89 10.88-3 12.45-7 24.5-13.82 35.42-5.43 8.66-12.34 15.61-22.16 19a37.12 37.12 0 0 1-20.68.83c-.71-.16-1.44-.29-2.22-.44a.08.08 0 0 0-.09 0C68.49 88 67.76 104.53 68 121.49a.07.07 0 0 1-.08.08H59.1a.07.07 0 0 1-.07-.07c.07-.84.17-1.71.22-2.59a73.9 73.9 0 0 0-6.81-36.18c-.72-1.56-1.66-1-2.68-1-4 .1-8 .67-11.91.1-8-1.2-13.58-6.37-17.87-13.06-5.73-8.9-8.28-19-10.71-29.16A12.57 12.57 0 0 1 9 38.27c-.1-.57-.18-1-.24-1.49Z" data-name="Calque 1" style="fill:var(--green-element)" transform="translate(-8.76 14.78)"/><text id="Calque_3" data-name="Calque 3" style="font-size:156.57px;fill:var(--text-color)" transform="matrix(.8 0 0 1 180 134)">
			<tspan class="cls-3">
				JARDIN
			</tspan>
			<tspan x="580" class="cls-3">
				CONNECTÉ
			</tspan>
		</text></svg>