<svg xmlns="http://www.w3.org/2000/svg" data-name="Calque 1" viewBox="0 0 237.92 212.78"><path d="M5.9 74.94a.15.15 0 0 1 .15-.17C29 74.79 51 78.61 70.82 90.94c10.45 6.49 18.76 14.89 21.48 27.42 1.49 6.86.79 13.7-1.53 21.23a.15.15 0 0 1-.27 0c-11-19.71-29.29-29.6-47.73-39.22a.15.15 0 0 0-.16.26c7.81 5.38 15.93 10.39 23.08 16.54a162.34 162.34 0 0 1 22.15 23c6.35 8.15 11.1 17.53 17.08 27.28a.14.14 0 0 0 .26 0c16.53-54.98 53.74-93.2 100.58-123.45.54-.35-.13-1.41-.71-1.1-6.27 3.55-12.67 6.89-18.78 10.69-6.35 4-12.64 8.07-18.57 12.61a170.88 170.88 0 0 0-16.62 14.37 190.08 190.08 0 0 0-14.87 16.83c-4.56 5.73-8.6 11.87-13.15 18.25a.15.15 0 0 1-.27 0c-6.37-21.9-2.45-41.11 12.48-57.88C143 49 152.44 42.49 162.72 37.22 187 24.79 213 19.45 240.09 18.88c.9 0 1.76-.05 3.58 0a.15.15 0 0 1 .15.17c-1.19 6.92-1.95 13.61-3.53 20.1-5.58 23-13.07 45.26-25.83 65.44-10.15 16-23.06 28.84-41.42 35.16-12.69 4.36-25.63 4.41-38.65 1.53-1.34-.3-2.7-.53-4.16-.81a.13.13 0 0 0-.16.08c-12.52 29.07-13.89 59.57-13.38 90.9a.15.15 0 0 1-.15.15H100a.14.14 0 0 1-.14-.16c.14-1.54.32-3.16.42-4.78a135.08 135.08 0 0 0-12.74-66.84c-1.34-2.89-3.1-1.83-5-1.79-7.43.18-15 1.23-22.27.17-15-2.21-25.39-11.76-33.4-24.13C16.16 117.63 11.39 99 6.84 80.21c-.21-.88-.32-1.45-.5-2.51S6 75.85 5.9 74.94Z" style="fill:#078450" transform="translate(-5.9 -18.86)"/></svg>