<svg xmlns="http://www.w3.org/2000/svg" width="800" height="800" fill="none" viewBox="0 0 24 24"><path stroke="#000" stroke-linecap="round" stroke-linejoin="round" stroke-width="2" d="M12 8v5m0 3h.01m-3.162 4.66h6.304c.674 0 1.01 0 1.311-.098.267-.086.512-.228.72-.415.236-.212.404-.504.74-1.087l3.153-5.46c.337-.583.505-.874.57-1.184a1.999 1.999 0 0 0 0-.832c-.065-.31-.233-.601-.57-1.184l-3.152-5.46c-.337-.583-.505-.874-.74-1.086a1.999 1.999 0 0 0-.72-.416c-.302-.098-.638-.098-1.311-.098H8.848c-.674 0-1.01 0-1.311.098a2 2 0 0 0-.72.416c-.236.212-.404.503-.74 1.086L2.923 10.4c-.337.583-.505.874-.57 1.184a2 2 0 0 0 0 .832c.065.31.233.601.57 1.184l3.152 5.46c.337.583.505.875.74 1.087a2 2 0 0 0 .72.416c.302.097.638.097 1.312.097Z"/></svg>